# MagicaVoxel @ Ephtracy

# material
mtllib 4x1x4.mtl
usemtl palette

# normals
vn -1 0 0
vn 1 0 0
vn 0 0 1
vn 0 0 -1
vn 0 -1 0
vn 0 1 0

# texcoords
vt 0.00585938 0.5
vt 0.0136719 0.5
vt 0.0253906 0.5
vt 0.0292969 0.5
vt 0.0371094 0.5
vt 0.0410156 0.5
vt 0.0566406 0.5
vt 0.0605469 0.5
vt 0.0722656 0.5
vt 0.0800781 0.5
vt 0.111328 0.5
vt 0.134766 0.5
vt 0.142578 0.5
vt 0.185547 0.5

# verts
v -2 0 2
v -2 0 1
v -2 0 -0
v -2 0 -1
v -2 0 -2
v -2 1 2
v -2 1 1
v -2 1 -0
v -2 1 -1
v -2 1 -2
v 2 0 2
v 2 0 1
v 2 0 -0
v 2 0 -1
v 2 0 -2
v 2 1 2
v 2 1 1
v 2 1 -0
v 2 1 -1
v 2 1 -2
v -2 0 2
v -2 1 2
v -1 0 2
v -1 1 2
v 0 0 2
v 0 1 2
v 1 0 2
v 1 1 2
v 2 0 2
v 2 1 2
v -2 0 -2
v -2 1 -2
v -1 0 -2
v -1 1 -2
v 0 0 -2
v 0 1 -2
v 1 0 -2
v 1 1 -2
v 2 0 -2
v 2 1 -2
v -2 0 2
v -1 0 2
v 0 0 2
v 1 0 2
v 2 0 2
v -2 0 1
v -1 0 1
v 0 0 1
v 1 0 1
v 2 0 1
v -2 0 -0
v -1 0 -0
v 0 0 -0
v 1 0 -0
v 2 0 -0
v -2 0 -1
v -1 0 -1
v 0 0 -1
v 1 0 -1
v 2 0 -1
v -2 0 -2
v -1 0 -2
v 0 0 -2
v 1 0 -2
v 2 0 -2
v -2 1 2
v -1 1 2
v 0 1 2
v 1 1 2
v 2 1 2
v -2 1 1
v -1 1 1
v 0 1 1
v 1 1 1
v 2 1 1
v -2 1 -0
v -1 1 -0
v 0 1 -0
v 1 1 -0
v 2 1 -0
v -2 1 -1
v -1 1 -1
v 0 1 -1
v 1 1 -1
v 2 1 -1
v -2 1 -2
v -1 1 -2
v 0 1 -2
v 1 1 -2
v 2 1 -2

# faces
f 6/14/1 2/14/1 1/14/1
f 7/9/1 3/9/1 2/9/1
f 7/14/1 2/14/1 6/14/1
f 8/5/1 4/5/1 3/5/1
f 8/9/1 3/9/1 7/9/1
f 9/2/1 5/2/1 4/2/1
f 9/5/1 4/5/1 8/5/1
f 10/2/1 5/2/1 9/2/1
f 11/6/2 12/6/2 16/6/2
f 12/3/2 13/3/2 17/3/2
f 16/6/2 12/6/2 17/6/2
f 13/12/2 14/12/2 18/12/2
f 17/3/2 13/3/2 18/3/2
f 14/1/2 15/1/2 19/1/2
f 18/12/2 14/12/2 19/12/2
f 19/1/2 15/1/2 20/1/2
f 23/14/3 22/14/3 21/14/3
f 24/14/3 22/14/3 23/14/3
f 25/11/3 24/11/3 23/11/3
f 26/11/3 24/11/3 25/11/3
f 27/7/3 26/7/3 25/7/3
f 28/7/3 26/7/3 27/7/3
f 29/6/3 28/6/3 27/6/3
f 30/6/3 28/6/3 29/6/3
f 31/2/4 32/2/4 33/2/4
f 33/2/4 32/2/4 34/2/4
f 33/6/4 34/6/4 35/6/4
f 35/6/4 34/6/4 36/6/4
f 35/4/4 36/4/4 37/4/4
f 37/4/4 36/4/4 38/4/4
f 37/1/4 38/1/4 39/1/4
f 39/1/4 38/1/4 40/1/4
f 46/14/5 42/14/5 41/14/5
f 47/11/5 43/11/5 42/11/5
f 47/14/5 42/14/5 46/14/5
f 48/7/5 44/7/5 43/7/5
f 48/11/5 43/11/5 47/11/5
f 49/6/5 45/6/5 44/6/5
f 49/7/5 44/7/5 48/7/5
f 50/6/5 45/6/5 49/6/5
f 51/9/5 47/9/5 46/9/5
f 52/13/5 48/13/5 47/13/5
f 52/9/5 47/9/5 51/9/5
f 53/4/5 49/4/5 48/4/5
f 53/13/5 48/13/5 52/13/5
f 54/3/5 50/3/5 49/3/5
f 54/4/5 49/4/5 53/4/5
f 55/3/5 50/3/5 54/3/5
f 56/5/5 52/5/5 51/5/5
f 57/8/5 53/8/5 52/8/5
f 57/5/5 52/5/5 56/5/5
f 58/10/5 54/10/5 53/10/5
f 58/8/5 53/8/5 57/8/5
f 59/12/5 55/12/5 54/12/5
f 59/10/5 54/10/5 58/10/5
f 60/12/5 55/12/5 59/12/5
f 61/2/5 57/2/5 56/2/5
f 62/6/5 58/6/5 57/6/5
f 62/2/5 57/2/5 61/2/5
f 63/4/5 59/4/5 58/4/5
f 63/6/5 58/6/5 62/6/5
f 64/1/5 60/1/5 59/1/5
f 64/4/5 59/4/5 63/4/5
f 65/1/5 60/1/5 64/1/5
f 66/14/6 67/14/6 71/14/6
f 67/11/6 68/11/6 72/11/6
f 71/14/6 67/14/6 72/14/6
f 68/7/6 69/7/6 73/7/6
f 72/11/6 68/11/6 73/11/6
f 69/6/6 70/6/6 74/6/6
f 73/7/6 69/7/6 74/7/6
f 74/6/6 70/6/6 75/6/6
f 71/9/6 72/9/6 76/9/6
f 72/13/6 73/13/6 77/13/6
f 76/9/6 72/9/6 77/9/6
f 73/4/6 74/4/6 78/4/6
f 77/13/6 73/13/6 78/13/6
f 74/3/6 75/3/6 79/3/6
f 78/4/6 74/4/6 79/4/6
f 79/3/6 75/3/6 80/3/6
f 76/5/6 77/5/6 81/5/6
f 77/8/6 78/8/6 82/8/6
f 81/5/6 77/5/6 82/5/6
f 78/10/6 79/10/6 83/10/6
f 82/8/6 78/8/6 83/8/6
f 79/12/6 80/12/6 84/12/6
f 83/10/6 79/10/6 84/10/6
f 84/12/6 80/12/6 85/12/6
f 81/2/6 82/2/6 86/2/6
f 82/6/6 83/6/6 87/6/6
f 86/2/6 82/2/6 87/2/6
f 83/4/6 84/4/6 88/4/6
f 87/6/6 83/6/6 88/6/6
f 84/1/6 85/1/6 89/1/6
f 88/4/6 84/4/6 89/4/6
f 89/1/6 85/1/6 90/1/6
